<svg width="340.254" height="340.254" xmlns="http://www.w3.org/2000/svg">

 <g>
  <title>background</title>
  <rect fill="none" id="canvas_background" height="402" width="582" y="-1" x="-1"/>
 </g>
 <g>
  <title>Layer 1</title>
  <g id="svg_1">
   <path id="svg_2" fill="#EEEEEE" d="m340.252,170.862c-0.39,90.3 -71.05,163.86 -159.95,169.09c-3.61,0.22 -7.25,0.32 -10.91,0.3c-80.59,-0.35 -147.84,-56.68 -165.09,-131.98c-2.87,-12.49 -4.36,-25.51 -4.3,-38.88c0.41,-93.96 76.91,-169.8 170.86,-169.39c93.96,0.41 169.8,76.91 169.39,170.86z"/>
   <path id="svg_9" fill="#EEEEEE" d="m293.584,181.695l21.333,0.093l0.069,-16l-37.333,-0.162l0,0c-0.037,8.836 7.095,16.031 15.931,16.069z"/>
  </g>
  <g id="svg_11"/>
  <g id="svg_12"/>
  <g id="svg_13"/>
  <g id="svg_14"/>
  <g id="svg_15"/>
  <g id="svg_16"/>
  <g id="svg_17"/>
  <g id="svg_18"/>
  <g id="svg_19"/>
  <g id="svg_20"/>
  <g id="svg_21"/>
  <g id="svg_22"/>
  <g id="svg_23"/>
  <g id="svg_24"/>
  <g id="svg_25"/>
 </g>
</svg>